<?xml version="1.0" standalone="no"?>
<!DOCTYPE svg PUBLIC "-//W3C//DTD SVG 20010904//EN"
 "http://www.w3.org/TR/2001/REC-SVG-20010904/DTD/svg10.dtd">
<svg version="1.0" xmlns="http://www.w3.org/2000/svg"
 width="1080.000000pt" height="1080.000000pt" viewBox="0 0 1080.000000 1080.000000"
 preserveAspectRatio="xMidYMid meet">

<g transform="translate(0.000000,1080.000000) scale(0.100000,-0.100000)"
fill="#ff4e02" stroke="none">
<path d="M3455 9338 c-1632 -5 -2613 -12 -2619 -18 -6 -6 384 -403 1069 -1089
593 -594 1085 -1091 1093 -1106 13 -25 11 -29 -22 -72 -20 -26 -93 -105 -163
-178 -71 -72 -151 -158 -179 -190 -29 -33 -101 -110 -160 -171 -60 -61 -140
-146 -179 -189 -38 -43 -92 -101 -120 -129 -51 -53 -209 -219 -319 -337 -33
-36 -106 -112 -161 -170 -55 -58 -120 -127 -144 -154 -24 -28 -101 -109 -170
-180 -69 -72 -144 -151 -165 -175 -21 -25 -93 -101 -160 -170 -67 -69 -134
-141 -150 -160 -16 -19 -127 -136 -246 -260 -261 -270 -330 -347 -330 -369 0
-16 8 -56 50 -281 12 -63 25 -144 30 -180 5 -36 13 -85 18 -110 6 -25 15 -83
22 -130 6 -47 15 -103 20 -125 5 -22 14 -74 20 -115 7 -41 19 -111 27 -155 9
-44 19 -102 23 -130 5 -27 16 -95 25 -150 9 -55 20 -123 25 -150 20 -130 31
-166 53 -175 12 -4 94 -16 182 -25 88 -9 219 -23 290 -30 72 -8 198 -22 280
-30 83 -9 209 -22 280 -31 117 -13 221 -24 530 -55 55 -5 108 -12 119 -15 14
-5 47 23 135 113 64 65 129 134 145 153 15 19 96 105 180 190 83 86 196 205
251 265 55 61 127 137 160 170 33 33 77 81 99 105 21 25 123 133 225 240 103
107 207 218 231 245 25 28 83 89 130 136 121 122 307 317 359 375 64 71 141
154 261 280 58 61 161 171 230 245 69 74 165 176 215 227 49 51 93 100 98 108
8 13 -11 33 -213 224 -21 19 -59 54 -85 78 -27 23 -103 95 -170 160 -67 64
-180 172 -251 238 -71 67 -151 143 -179 169 -27 26 -88 82 -135 124 -99 89
-104 94 -291 276 -80 77 -176 167 -214 200 -39 33 -122 110 -185 171 -63 61
-145 140 -182 175 -68 64 -78 81 -55 96 13 8 464 6 478 -2 4 -3 202 -9 441
-15 238 -5 573 -14 743 -19 651 -21 977 -31 1170 -36 674 -17 745 -25 1004
-112 65 -21 348 -165 361 -182 3 -4 21 -18 40 -31 70 -49 251 -223 313 -300
142 -179 252 -410 297 -620 12 -58 28 -136 37 -175 19 -92 14 -364 -11 -490
-38 -197 -66 -287 -126 -408 -33 -67 -74 -145 -92 -174 -87 -138 -234 -296
-405 -434 -95 -77 -336 -205 -460 -244 -118 -38 -272 -74 -363 -85 -46 -5
-207 -10 -356 -10 l-271 0 -44 -42 c-24 -24 -66 -70 -94 -103 -27 -33 -52 -62
-55 -65 -3 -3 -27 -32 -54 -65 -28 -33 -75 -88 -105 -121 -90 -99 -169 -189
-210 -241 -21 -26 -51 -61 -67 -78 -16 -16 -36 -39 -44 -51 -8 -12 -35 -44
-60 -71 -25 -28 -79 -90 -120 -138 -41 -49 -98 -113 -125 -144 -28 -31 -66
-74 -84 -96 -19 -22 -62 -71 -97 -110 -34 -38 -73 -83 -85 -100 -13 -16 -28
-35 -34 -41 -5 -6 -36 -39 -67 -75 -86 -98 -73 -82 -238 -273 -75 -87 -120
-145 -120 -155 0 -13 126 -87 218 -127 40 -17 76 -35 79 -38 4 -3 12 -6 19 -6
8 0 38 -11 68 -25 78 -36 207 -82 296 -107 41 -11 98 -27 125 -35 28 -7 95
-23 150 -34 349 -71 445 -79 999 -79 254 0 510 5 571 11 131 12 453 63 545 84
178 43 422 115 505 150 17 7 57 23 90 35 33 12 88 35 123 51 35 16 65 29 67
29 17 0 311 155 405 213 61 37 263 172 285 189 6 5 44 34 85 66 228 173 509
449 695 681 164 205 329 466 448 706 139 282 192 420 287 755 30 105 78 347
90 455 5 39 14 99 21 135 17 91 17 767 0 875 -7 44 -16 107 -21 140 -22 167
-78 424 -120 560 -72 229 -121 365 -165 460 -84 180 -189 383 -227 437 -10 14
-18 29 -18 32 0 9 -82 134 -154 236 -184 259 -379 478 -610 685 -49 44 -94 85
-100 90 -15 14 -171 133 -221 168 -131 92 -251 169 -325 211 -47 27 -101 57
-120 68 -50 29 -207 108 -214 108 -3 0 -41 16 -83 36 -188 87 -414 164 -628
214 -289 67 -289 67 -555 100 -138 17 -403 30 -570 28 -85 -1 -1329 -5 -2765
-10z"/>
</g>
</svg>
