<?xml version="1.0" encoding="utf-8"?>
<!-- Generator: Adobe Illustrator 25.4.1, SVG Export Plug-In . SVG Version: 6.00 Build 0)  -->
<svg version="1.1" id="Layer_1" xmlns="http://www.w3.org/2000/svg" xmlns:xlink="http://www.w3.org/1999/xlink" x="0px" y="0px"
	 viewBox="0 0 600 163.3" style="enable-background:new 0 0 600 163.3;" xml:space="preserve">
<style type="text/css">
	.st0{fill:#FF4F02;}
	.st1{fill:#FFFFFF;}
</style>
<rect class="st0" width="600" height="163.3"/>
<g>
	<g>
		<g>
			<g>
				<g>
					<path class="st1" d="M288.6,128c-10.6,0-19.1-3.5-25.3-10.5c-5.6-6.3-8.4-14.1-8.4-23.3c0-9.3,2.9-17.2,8.6-23.7
						c6.4-7.2,15-10.8,25.9-10.8c10.6,0,19.1,3.5,25.3,10.5c5.6,6.3,8.4,14.1,8.4,23.3c0,9.3-2.9,17.2-8.6,23.7
						C308.1,124.4,299.4,128,288.6,128z M290,73.9c-6.3,0-11.3,2.1-15,6.3c-3.4,3.8-5,8.4-5,13.8c0,5.3,1.6,9.7,4.8,13.3
						c3.6,4,8.4,6,14.6,6c6.3,0,11.3-2.1,15-6.3c3.3-3.8,5-8.4,5-13.8c0-5.3-1.6-9.7-4.8-13.3C301,75.9,296.2,73.9,290,73.9z"/>
					<path class="st1" d="M361.4,62.6c9.1,0,16.8,3.2,23.3,9.7c6.4,6.4,9.7,14.2,9.7,23.3c0,8.9-3.1,16.5-9.2,22.8
						c-6.1,6.3-13.6,9.5-22.4,9.5c-9.2,0-17.1-2.9-23.7-8.7c-6.9-5.9-10.3-13.3-10.3-22.1V41.3h13.7v55.4c0,5,1.9,9.2,5.8,12.7
						c3.9,3.5,8.4,5.2,13.5,5.2c0.5,0,0.8,0,1,0c0.3,0,0.9-0.1,1.7-0.2c4.6-0.7,8.4-2.9,11.3-6.7c2.9-3.8,4.3-8.1,4.3-13
						c0-1.3-0.1-2.7-0.4-4.2c-0.9-4.4-3.2-7.8-6.8-10.2c-3.2-2.2-6.9-3.3-11.3-3.3c-3,0-5.8,0.6-8.5,1.7c-2.7,1.1-4.9,2.7-6.5,4.8
						V66.8c2.8-1.6,5.2-2.6,7.3-3.2C355.9,62.9,358.4,62.6,361.4,62.6z"/>
					<path class="st1" d="M433.2,62.6c9.1,0,16.8,3.2,23.3,9.7c6.4,6.4,9.7,14.2,9.7,23.3c0,8.9-3.1,16.5-9.2,22.8
						c-6.1,6.3-13.6,9.5-22.4,9.5c-9.2,0-17.1-2.9-23.7-8.7c-6.9-5.9-10.3-13.3-10.3-22.1V41.3h13.7v55.4c0,5,1.9,9.2,5.8,12.7
						c3.9,3.5,8.4,5.2,13.5,5.2c0.5,0,0.8,0,1,0c0.3,0,0.9-0.1,1.7-0.2c4.6-0.7,8.4-2.9,11.3-6.7c2.9-3.8,4.3-8.1,4.3-13
						c0-1.3-0.1-2.7-0.4-4.2c-0.9-4.4-3.2-7.8-6.8-10.2c-3.2-2.2-6.9-3.3-11.3-3.3c-3,0-5.8,0.6-8.5,1.7c-2.7,1.1-4.9,2.7-6.5,4.8
						V66.8c2.8-1.6,5.2-2.6,7.3-3.2C427.7,62.9,430.2,62.6,433.2,62.6z"/>
					<path class="st1" d="M473.8,41.3h14.7v86.6h-14.7V41.3z"/>
					<path class="st1" d="M505.5,59.6c-2.8,0-4.9-0.9-6.5-2.7c-1.6-1.8-2.3-3.9-2.3-6.3c0-2.4,0.8-4.4,2.3-6.1
						c1.5-1.7,3.7-2.5,6.5-2.5c2.5,0,4.6,0.9,6.2,2.8c1.4,1.7,2.1,3.7,2.1,6.1c0,2.3-0.7,4.3-2.2,6.1C510,58.7,508,59.6,505.5,59.6z
						 M497.9,63.8h14.7v64h-14.7V63.8z"/>
					<path class="st1" d="M523.4,128V89.6c0-8.4,3-15.5,9.1-21.4c6-5.9,13.3-8.9,21.8-8.9c8.3,0,15.4,3,21.3,8.9s8.8,13.1,8.8,21.5
						V128h-15.7V89.1c0-3.9-1.5-7.3-4.5-10c-3-2.7-6.6-4.1-10.7-4.1c-3.9,0-7.3,1.3-10.2,4s-4.3,6-4.3,9.8V128H523.4z"/>
				</g>
			</g>
			<g>
				<path class="st1" d="M237.3,72.6L224,85.9h5.2c-0.3,6.1-2.1,11.3-5.6,15.5c-2.9,3.6-6.8,6.4-11.7,8.3c-3.6,1.4-6.9,2.2-9.8,2.2
					c-1.2,0-1.7-0.1-1.7-0.4V57.4l0.3-0.2c7.3,0,14.2,2.8,20.5,8.3c3.4,3,5.7,6.5,6.9,10.6l9.1-9.1l7.2,7.2
					c-1.8-7.9-5.9-14.7-12.2-20.7c-8.9-8.3-19.5-12.5-31.8-12.5h-15.9V128H204c11.6,0,21.4-4.3,29.5-13c7.7-8.2,11.7-18,12.1-29.2h5
					L237.3,72.6z"/>
			</g>
		</g>
	</g>
	<g>
		<g>
			<path class="st1" d="M107.7,20.8c-33,0-59.8,26.8-59.8,59.8c0,10.6,2.8,20.6,7.7,29.3c1.1-1.8,2.1-3.9,2.7-6.2
				c-3.3-7-5.1-14.8-5.1-23c0-30.1,24.5-54.6,54.6-54.6s54.6,24.5,54.6,54.6s-24.5,54.6-54.6,54.6c-0.7,0-1.3,0-2,0
				c-2.3,1.6-4.6,3.2-7,4.6c2.9,0.4,5.9,0.7,8.9,0.7c33,0,59.8-26.8,59.8-59.8S140.7,20.8,107.7,20.8z"/>
			<g>
				<g>
					<path class="st1" d="M123.4,106.7c-1.2-1-2.9-0.8-3.9,0.3l-2.8,3.1c-0.6,0.6-1.6,0.7-2.2,0.1c-0.6-0.6-0.7-1.6-0.1-2.2l0.2-0.2
						l5.9-6.9c1.1-1.3,1-3.3-0.2-4.5c-1.3-1.3-3.5-1.2-4.7,0.2l0,0l-4.5,5.7c-0.7,0.8-1.9,0.9-2.7,0.2c-0.7-0.6-0.8-1.6-0.3-2.4l0,0
						l0.2-0.2c0,0,0,0,0,0l9.2-10.7c1.2-1.3,1.1-3.3-0.1-4.6c-1.4-1.4-3.6-1.4-4.9,0.1l-9.2,9.8l0,0l-0.5,0.5
						c-0.8,0.8-2.1,0.8-2.9,0s-0.8-2.1,0-2.9l8.2-8.5l9.1-10c1.4-1.4,1.5-3.7,0.2-5.2c-1.5-1.8-4.2-2-5.9-0.3l-31.6,32.6
						c-0.8,0.8-2.1,0.8-2.9,0c-0.8-0.8-0.8-2.1,0-2.9l7-7l7.1-7.3c1.1-1.1,0.8-3-0.5-3.6c-5.1-2.3-13.6,3-18.3,7.7
						c-4.4,4.4-5.9,7.7-7.8,15.9c-1.1,4.8-3.1,9.3-6.4,13c-15.8,17.7-42.1,5.7-42.1,5.7c16.5,22.8,51.8,24.4,71.3,15.8
						c15.9-7,31.4-20.7,36.9-27C124.8,109.5,124.6,107.7,123.4,106.7z"/>
				</g>
				<path class="st1" d="M137.3,69.3h-5.6c-0.8,0-1.4,0.6-1.4,1.4c0,0.8,0.6,1.4,1.4,1.4h5.6c0.8,0,1.4-0.6,1.4-1.4
					C138.7,70,138.1,69.3,137.3,69.3z M97.7,60.2l-4.8-2.8c-0.7-0.4-1.6-0.2-1.9,0.5c-0.4,0.7-0.2,1.6,0.5,1.9l4.8,2.8
					c0.2,0.1,0.5,0.2,0.7,0.2c0.5,0,1-0.3,1.2-0.7C98.6,61.5,98.3,60.6,97.7,60.2z M95.9,70.7c0-0.8-0.6-1.4-1.4-1.4h-5.6
					c-0.8,0-1.4,0.6-1.4,1.4c0,0.8,0.6,1.4,1.4,1.4h5.6C95.2,72.2,95.9,71.5,95.9,70.7z M129.2,62.9c0.2,0,0.5-0.1,0.7-0.2l4.8-2.8
					c0.7-0.4,0.9-1.3,0.5-1.9c-0.4-0.7-1.3-0.9-1.9-0.5l-4.8,2.8c-0.7,0.4-0.9,1.3-0.5,1.9C128.3,62.6,128.7,62.9,129.2,62.9z
					 M134.8,81.6l-4.8-2.8c-0.7-0.4-1.6-0.2-1.9,0.5s-0.2,1.6,0.5,1.9l4.8,2.8c0.2,0.1,0.5,0.2,0.7,0.2c0.5,0,1-0.3,1.2-0.7
					C135.7,82.9,135.5,82,134.8,81.6z M125.9,48.5c-0.7-0.4-1.6-0.2-1.9,0.5l-2.8,4.8c-0.4,0.7-0.2,1.6,0.5,1.9
					c0.2,0.1,0.5,0.2,0.7,0.2c0.5,0,1-0.3,1.2-0.7l2.8-4.8C126.8,49.8,126.6,48.9,125.9,48.5z M102.2,49.1c-0.4-0.7-1.3-0.9-1.9-0.5
					c-0.7,0.4-0.9,1.3-0.5,1.9l2.8,4.8c0.3,0.5,0.7,0.7,1.2,0.7c0.2,0,0.5-0.1,0.7-0.2c0.7-0.4,0.9-1.3,0.5-1.9L102.2,49.1z
					 M123.6,86.2c-0.4-0.7-1.3-0.9-1.9-0.5c-0.7,0.4-0.9,1.3-0.5,1.9l2.8,4.8c0.3,0.5,0.7,0.7,1.2,0.7c0.2,0,0.5-0.1,0.7-0.2
					c0.7-0.4,0.9-1.3,0.5-1.9L123.6,86.2z M113.1,45.1c-0.8,0-1.4,0.6-1.4,1.4v5.6c0,0.8,0.6,1.4,1.4,1.4c0.8,0,1.4-0.6,1.4-1.4
					v-5.6C114.5,45.7,113.9,45.1,113.1,45.1z"/>
			</g>
		</g>
	</g>
</g>
</svg>
