<?xml version="1.0" encoding="UTF-8"?>
<svg id="Layer_1" xmlns="http://www.w3.org/2000/svg" version="1.1" viewBox="0 0 793.2 234.3">
  <!-- Generator: Adobe Illustrator 29.3.1, SVG Export Plug-In . SVG Version: 2.1.0 Build 151)  -->
  <defs>
    <style>
      .st0 {
        fill: #fff;
      }
    </style>
  </defs>
  <path class="st0" d="M73.7,100.7c-2.5-2.3-5.7-3.4-9.7-3.4s-8.3,1.5-11.9,4.5l-8.4,73.2c8.2-1.8,15.1-5.5,20.5-11.2,5.4-5.7,9.4-12.3,12-19.8,2.5-7.5,3.8-14.9,3.8-22.3s-.6-9-1.7-12.8c-1.1-3.8-2.7-6.5-4.6-8.3Z"/>
  <path class="st0" d="M202,123.4c-4.4,0-8.5,2.6-12.4,7.6l6.8,4.7c.5.4.7.7.7,1.2,0,.4-.4,1-.9,1.7-3.7,7.9-5.5,16.9-5.5,26.9s1,13.3,3,18.4c2,5.1,4.8,7.6,8.3,7.6s8.4-3.5,11.6-10.4c3.2-6.9,5-15.8,5.5-26.7.4-9.3-1.1-16.8-4.2-22.5-3.2-5.7-7.5-8.6-12.9-8.6Z"/>
  <path class="st0" d="M327.1,128.1c-2.3,0-4.4.8-6.5,2.4-2,1.6-3.7,3.9-5.1,6.8l-2.6,26.1c0,4.2,1.1,7.7,3.3,10.4,2.2,2.7,5,4.1,8.3,4.1s7.3-2.9,9.7-8.8c2.5-5.9,3.7-12.5,3.7-19.9s-.9-11-2.8-15c-1.8-4-4.5-6.1-8-6.1Z"/>
  <path class="st0" d="M455.9,128.1c-2.3,0-4.4.8-6.5,2.4-2,1.6-3.7,3.9-5.1,6.8l-2.6,26.1c0,4.2,1.1,7.7,3.3,10.4,2.2,2.7,5,4.1,8.3,4.1s7.3-2.9,9.7-8.8c2.5-5.9,3.7-12.5,3.7-19.9s-.9-11-2.8-15c-1.8-4-4.5-6.1-8-6.1Z"/>
  <g>
    <path class="st0" d="M740.6,62.3c-7.6.5-14.2,3.5-20,9l.3-1.3c.4-2.3-.3-4-2-5.1-1.7-1.1-4-1.5-7-1.2l-48.3,3.8c1-1.5,1.9-3,2.7-4.6,2.8-5.8,4.2-11.9,4.2-18.4s-1.7-14.4-5.1-21.1c-3.4-6.7-8.3-12.1-14.7-16.2-6.4-4.1-13.9-6.2-22.5-6.2s-18.2,2.7-25.1,7.8c-1.1-2.2-2.9-4.1-5.4-5.9-3.4-2.4-8.5-3.3-15.1-2.8l-49.5,4c-4.7.2-7.1,2.7-7.1,7.6l.5,78c-3.8-7.1-8.4-13.3-14.1-18.5-8.3-7.5-18.5-11.7-30.4-12.4-3.7-.3-7.1,0-10.3.8l4.2-40.3c.4-1.6-.6-4-2.9-7.4-2.3-3.3-5.2-6.2-8.7-8.7-3.5-2.5-7-3.5-10.5-3.2l-49.5,4c-4.7.2-7.1,2.7-7.1,7.6l.5,78c-3.8-7.1-8.4-13.4-14.1-18.5-8.3-7.5-18.5-11.7-30.4-12.4-3.7-.3-7.1,0-10.3.8l4.2-40.3c.4-1.6-.6-4-2.9-7.4-2.3-3.3-5.2-6.2-8.7-8.7-3.5-2.5-7-3.5-10.5-3.2l-49.5,4c-4.7.2-7.1,2.7-7.1,7.6l.6,84.4c-5.9-10.7-13.6-19.6-23.3-26.6-11.7-8.3-25.3-12.5-41-12.5s-26.6,3.6-35.9,10.8c-6.5,5-11.7,10.4-15.8,16.1-1.9-11.5-5.3-21.8-10.7-30.8-8.3-13.9-20.5-22.8-36.9-26.9-4.4-1.1-9-1.6-13.7-1.6-10.2,0-19,2.1-26.3,6.3l.3-2.9c.2-2.3-.5-4-2.1-5.1s-3.9-1.5-6.8-1.2l-49.5,4C2.4,25.9,0,28.4,0,33.3l1.3,177c0,3.3,1.2,6.7,3.7,10.1,2.5,3.4,5.4,6.1,8.7,8.2,3.3,2,6.1,2.9,8.4,2.5l29-4.2c18.3-1.8,34.1-6.8,47.7-15.3,13.5-8.4,24.4-18.4,32.5-29.9,4.4-6.2,8.1-12.5,11-18.8,1.3,9.3,3.9,18.3,7.8,26.9,6,13.1,14.4,23.7,25.4,32,11,8.2,23.7,12.4,38.1,12.4s22.9-3.3,32.4-10c9.5-6.7,17.2-15.5,23-26.6.2-.4.4-.8.6-1.2v11.2c0,1.9,1.1,4.7,3.2,8.4,2.1,3.7,4.7,6.8,7.9,9.3,3.2,2.5,6.4,3.6,9.7,3l29.2-4.2c3.3-.5,5.6-2.2,6.8-5,5.6,2.6,11.8,3.9,18.4,3.9s5.9-.3,8.7-.8c11.8-1.9,21.8-7.1,30.2-15.4,5.9-5.9,10.7-12.8,14.5-20.6v21.2c.1,1.9,1.2,4.7,3.3,8.4,2.1,3.7,4.7,6.8,7.9,9.3,3.2,2.5,6.4,3.6,9.7,3l29.2-4.2c3.3-.5,5.6-2.2,6.8-5,5.6,2.6,11.8,3.9,18.4,3.9s5.9-.3,8.7-.8c11.8-1.9,21.8-7.1,30.2-15.4,5.9-5.9,10.7-12.8,14.5-20.6v21.2c.1,2.1.9,4.8,2.4,8.2,1.5,3.3,3.6,6.3,6.5,9,2.8,2.6,6.1,3.9,9.7,3.9l2.4-.3,29-4.2c2.6-.4,4.6-1.3,5.9-2.9,1.3-1.6,2.1-4,2.2-7.4l5.2-51.9.9,45.5c0,2.1.7,4.9,2.1,8.3,1.4,3.4,3.5,6.4,6.2,9,2.7,2.5,6.1,3.8,10.1,3.8l2.4-.3,29-4.2c2.6-.4,4.5-1.3,5.7-2.8,1.1-1.5,2-4,2.5-7.5l7.1-48.3.5,41.9c0,2.3.6,5.1,1.7,8.4,1.1,3.3,3,6.3,5.7,8.8,2.6,2.5,6.1,3.8,10.5,3.8s2.2,0,2.9-.3l29-4.2c2.6-.4,4.5-1.3,5.7-2.8,1.1-1.5,2-4,2.5-7.5l8.4-56.6c1.8-4.2,3.6-6.9,5.5-8.2.4,2.1.5,5.7.5,10.8l-.5,47.7c0,4.4,1.3,9,4,13.8,2.6,4.8,7.1,7.2,13.4,7.2s2.7,0,3.4-.3l29-4.2c2.6-.4,4.6-1.3,5.9-2.9,1.3-1.6,2.1-4,2.2-7.4l5.3-57.1c.9-9.3,1.3-17.6,1.3-24.8,0-22.3-4-39.8-12-52.4-8-12.6-21.6-18.4-40.7-17.4ZM129.8,132.4c-3.2,11.4-8.6,22.6-16.3,33.4-7.7,10.9-18,20.3-30.8,28.2-12.8,7.9-27.9,12.7-45.3,14.5l-29,4.2c-.9.2-1.4.1-1.6-.1-.2-.3-.3-1-.3-2.2l-1.3-177c0-1,.1-1.7.4-1.8.3-.2.9-.3,2-.5l49.5-3.9c.3,0,1,0,1.8-.1.9,0,1.3,0,1.3.1l-1.1,9,4.2,2.4c3.3-2.6,7.5-4.7,12.4-6.2,4.9-1.5,10-2.2,15.3-2.2s8.6.5,12.6,1.6c10.9,2.8,19,9.7,24.2,20.7,5.3,11,7.9,24,7.9,39.1s-2,26.9-6.1,41.1ZM255.3,172.9c-5,12.8-12.2,23.2-21.7,31.1s-20.5,11.8-33.2,11.8-20.7-3.2-29-9.5c-8.3-6.3-14.5-14.6-18.8-24.8-3.8-9-5.8-18.6-6.3-28.6.7-2,1.4-3.9,1.9-5.9,3.3-11.7,5.3-23.2,6-34.7v-4c.2-1.7.3-3.4.3-5.1,0-5.1-.3-10.1-.9-14.8,4-6.4,9.8-12.2,17.6-17.6,8.5-5.8,19.3-8.7,32.3-8.7s24.2,3.2,33.1,9.7c8.9,6.5,15.4,15.1,19.8,25.8,4.3,10.7,6.5,22.4,6.5,35s-2.5,27.2-7.5,40ZM385.7,158c-4.1,12-10.2,22.2-18.2,30.6-8,8.3-17.3,13.5-28,15.4-2.6.5-5.4.8-8.2.8-6.7,0-12.8-1.7-18.4-5l-4,2.1c-.2,1.4-.5,2.4-.9,2.9-.4.5-1.3.9-2.5,1.1l-28.7,4.2c-.9.2-1.4.1-1.6-.1-.2-.3-.3-1-.3-2.2l-.2-23.3c2.6-7.3,4.6-15,5.7-23.1.7-4.4,1.1-9.3,1.1-14.7,0-13.7-2.5-26.7-7.3-38.9l-.6-95.9c0-1.1.1-1.7.4-1.8.3-.2.9-.3,2-.5l49.5-3.9,3.2.3-6.6,65.8,4.5,2.1c6.3-6.3,14.3-9.5,24-9.5s23.6,5.5,30.7,16.5c7.1,11,10.7,24.5,10.7,40.7s-2.1,24.7-6.2,36.7ZM514.5,158c-4.1,12-10.2,22.2-18.2,30.6-8,8.3-17.3,13.5-28,15.4-2.6.5-5.4.8-8.2.8-6.7,0-12.8-1.7-18.4-5l-4,2.1c-.2,1.4-.5,2.4-.9,2.9-.4.5-1.3.9-2.5,1.1l-28.7,4.2c-.9.2-1.4.1-1.6-.1-.2-.3-.3-1-.3-2.2l-.2-34.6c3.4-11.1,5.2-22.8,5.2-35s-1.9-24.5-5.7-35.8l-.6-90.6c0-1.1.1-1.7.4-1.8.3-.2.9-.3,2-.5l49.5-3.9,3.2.3-6.6,65.8,4.5,2.1c6.3-6.3,14.3-9.5,24-9.5s23.6,5.5,30.7,16.5c7.1,11,10.7,24.5,10.7,40.7s-2.1,24.7-6.2,36.7ZM566.7,200.3c-.2,2.3-.5,3.7-.9,4.3-.4.6-1.3,1-2.5,1.2l-29,4.2c-.9.2-1.4.1-1.6-.1-.2-.3-.3-1-.3-2.2l-.2-34.6c3.4-11.2,5.2-22.8,5.2-35s-2-24.5-5.7-35.8l-.6-90.6c0-1.1.1-1.7.4-1.8.3-.2.9-.3,2-.5l49.5-3.9c1.9,0,2.9.9,2.9,2.6l-19.2,192.3ZM600.3,63c3.6,4,8,7.7,13.6,11.2l-14.8,1.1,1.2-12.3ZM648.7,78.6l-17.9,121.7c-.2,2.3-.5,3.7-.9,4.3-.4.6-1.3,1-2.5,1.2l-29,4.2c-.9.2-1.4.1-1.6-.1-.2-.3-.3-1-.3-2.2l-1.7-89.7,3.7-37.4,47.5-3.8c1.7-.2,2.6,0,2.6.8v1ZM642.1,56.2c-5.3,5.6-11.7,8.4-19.2,8.4s-14-2.8-19.2-8.4c-.9-1-1.6-2-2.3-3l3.4-33.9c.2-1.4.1-3.2-.2-5.1,5.1-5.1,11.2-7.8,18.3-7.8s14,2.9,19.2,8.6c5.3,5.7,7.9,12.6,7.9,20.7s-2.6,14.9-7.9,20.5ZM773.5,143.2l-5.3,57.1c-.2,2.3-.5,3.7-.9,4.3-.4.6-1.3,1-2.5,1.2l-29,4.2c-.9.2-1.4.1-1.6-.1-.2-.3-.3-1-.3-2.2l.5-47.7c.4-20.2-4.7-30.3-15-30.3s-11.1,4.3-14.7,12.9l-8.4,57.7c-.2,2.3-.5,3.7-.9,4.3-.4.6-1.3,1-2.5,1.2l-29,4.2c-.9.2-1.4.1-1.6-.1-.2-.3-.3-1-.3-2.2l-.9-74.9,5.9-39.9c.2-.5.3-1.4.3-2.6,0-2.1-1-4.2-3-6.2-.9-.9-2.2-1.9-3.8-2.9v-5.9c0-1.1,0-1.7.3-1.8.3-.2.9-.4,2-.5l49.5-4c.3,0,1,0,1.8-.1.9,0,1.3,0,1.3.1l-1.6,10.8,4.7,1.8c6.3-9.3,14-14,22.9-14s19.8,4.1,25.2,12.4c5.4,8.3,8,21.2,8,39s-.4,14.2-1.3,24.2Z"/>
    <path class="st0" d="M173,41.6c.7,1.4,1.7,2.5,2.8,3.5,1.2,1,2.4,1.7,3.8,2,1.4.4,2.7.4,4.2.2,1.4-.3,2.7-.9,3.8-2,.8-.8,1.6-1.8,2.3-2.7.7-1,1.3-2,2-3.1,1.2-1.8,2.3-3.5,3.5-5.2,1.2-1.7,2.4-3.3,3.6-5,1.6-2.2,3-4.5,4.3-6.9,1.3-2.4,2.4-4.9,3.2-7.4.6-1.5.8-3.1.6-4.9-.2-1.5-.8-2.8-1.6-4.1-.9-1.3-1.9-2.3-3.1-3.1-1.8-1.4-3.7-2.3-5.7-2.7-2-.4-4.1-.4-6.1,0-2,.4-4,1.2-6,2.4-1.9,1.2-3.6,2.6-4.9,4.2-1.8,2.1-3.1,4.5-4.1,7.1-.9,2.6-1.7,5.3-2.2,8-.5,2.7-1,5.5-1.3,8.3-.4,2.8-.3,5.6,0,8.3.2,1.2.5,2.1.9,3Z"/>
    <path class="st0" d="M203.6,34.9c-.5,2.3-.6,4.3-.2,6.1.2.8.6,1.6,1.2,2.4.6.7,1.3,1.3,2.1,1.7.9.4,1.9.6,3,.6s2.1-.1,3.1-.3c1.8-.3,4.2-.8,7.1-1.6,3-.7,6-1.6,9-2.7,3-1,5.7-2.3,8.2-3.6,2.5-1.4,4.2-2.8,5.2-4.4,1-1.8,1.6-3.7,1.6-5.8s-.4-4.1-1.2-6c-.8-1.9-1.9-3.6-3.4-5-1.5-1.5-3.2-2.5-5.2-3-1.8-.5-3.6-.6-5.3-.2-1.8.4-3.6.9-5.3,1.6-1.9.7-3.7,1.6-5.6,2.5-1.8.9-3.6,2-5.3,3.3-2.3,1.7-4.2,3.8-5.8,6.4-1.6,2.6-2.7,5.2-3.3,7.9Z"/>
  </g>
</svg>