<?xml version="1.0" encoding="UTF-8"?>
<svg id="Layer_1" xmlns="http://www.w3.org/2000/svg" version="1.1" viewBox="0 0 129.2 221.2">
  <!-- Generator: Adobe Illustrator 29.3.1, SVG Export Plug-In . SVG Version: 2.1.0 Build 151)  -->
  <defs>
    <style>
      .st0 {
        fill: #fff;
      }

      .st1 {
        fill: #e42e33;
      }
    </style>
  </defs>
  <g>
    <path class="st0" d="M86.7,54.3c-3.4-.9-6.9-1.3-10.6-1.3s-8.7.6-12.8,1.9c-4.1,1.2-7.6,3-10.3,5.2l-3.5-2,.9-7.5c0-.1-.4-.2-1.1-.1-.7,0-1.2.1-1.5.1l-41.4,3.3c-.9.1-1.4.3-1.7.4-.2.1-.3.7-.3,1.5l1.1,147.9c0,1,0,1.7.2,1.9.1.2.6.3,1.3.1l24.2-3.5c14.5-1.5,27.2-5.5,37.9-12.1,10.7-6.6,19.3-14.5,25.8-23.6,6.5-9.1,11-18.4,13.6-28,3.4-11.9,5.1-23.3,5.1-34.3s-2.2-23.5-6.6-32.7c-4.4-9.2-11.2-14.9-20.3-17.3ZM63.7,148.4c-2.1,6.2-5.5,11.7-10,16.5-4.6,4.8-10.3,7.9-17.2,9.4l7-61.2c2.9-2.5,6.2-3.7,9.9-3.7s6.1,1,8.1,2.9c1.6,1.5,2.9,3.8,3.9,6.9,1,3.2,1.4,6.7,1.4,10.7,0,6.2-1.1,12.4-3.2,18.6Z"/>
    <path class="st1" d="M88.1,49.9c-3.7-.9-7.5-1.3-11.4-1.3-8.5,0-15.9,1.8-22,5.3l.2-2.4c.1-1.9-.4-3.3-1.8-4.3-1.3-1-3.2-1.3-5.7-1l-41.4,3.3c-4,.1-5.9,2.3-5.9,6.4l1.1,147.9c0,2.8,1,5.6,3.1,8.5,2.1,2.9,4.5,5.1,7.3,6.8,2.8,1.7,5.1,2.4,7,2.1l24.2-3.5c15.3-1.5,28.5-5.7,39.8-12.8,11.3-7,20.4-15.4,27.2-25,6.8-9.6,11.6-19.3,14.2-28.9,3.5-12.3,5.3-24.5,5.3-36.5s-3.5-30.5-10.3-42c-6.9-11.6-17.2-19.1-30.8-22.5ZM108.5,138.6c-2.6,9.5-7.2,18.9-13.6,28-6.5,9.1-15,17-25.8,23.6-10.7,6.6-23.3,10.6-37.9,12.1l-24.2,3.5c-.7.1-1.2.1-1.3-.1-.1-.2-.2-.8-.2-1.9l-1.1-147.9c0-.9.1-1.4.3-1.5.2-.1.8-.3,1.7-.4l41.4-3.3c.3,0,.8,0,1.5-.1.7,0,1.1,0,1.1.1l-.9,7.5,3.5,2c2.8-2.2,6.2-3.9,10.3-5.2,4.1-1.2,8.4-1.9,12.8-1.9s7.2.4,10.6,1.3c9.1,2.3,15.9,8.1,20.3,17.3,4.4,9.2,6.6,20.1,6.6,32.7s-1.7,22.5-5.1,34.3Z"/>
    <path class="st1" d="M61.6,112.2c-2.1-1.9-4.8-2.9-8.1-2.9s-7,1.2-9.9,3.7l-7,61.2c6.9-1.5,12.6-4.6,17.2-9.4,4.5-4.8,7.9-10.3,10-16.5,2.1-6.2,3.2-12.4,3.2-18.6s-.5-7.5-1.4-10.7c-1-3.2-2.2-5.5-3.9-6.9Z"/>
  </g>
  <g>
    <path class="st1" d="M1,34.1c.6,1.1,1.4,2.1,2.3,2.9.9.8,2,1.4,3.1,1.7,1.1.3,2.3.3,3.4.1,1.2-.2,2.2-.8,3.2-1.6.7-.7,1.3-1.4,1.9-2.3.6-.8,1.1-1.7,1.6-2.5.9-1.5,1.9-2.9,2.8-4.3.9-1.4,1.9-2.7,3-4.1,1.3-1.8,2.5-3.7,3.5-5.7,1.1-2,2-4,2.6-6.1.5-1.2.7-2.5.5-4-.2-1.2-.6-2.3-1.4-3.3-.7-1-1.6-1.9-2.5-2.6-1.5-1.1-3-1.8-4.7-2.2-1.7-.3-3.3-.3-5,0-1.7.3-3.3,1-4.9,1.9-1.6.9-2.9,2.1-4.1,3.5-1.5,1.7-2.6,3.7-3.3,5.8-.8,2.1-1.4,4.3-1.8,6.6-.4,2.2-.8,4.5-1.1,6.8-.3,2.3-.3,4.6,0,6.8.2.9.4,1.8.8,2.4Z"/>
    <path class="st1" d="M26.2,28.6c-.4,1.9-.5,3.6-.1,5,.2.7.5,1.3,1,1.9.5.6,1.1,1.1,1.7,1.4.8.3,1.6.5,2.4.5s1.7,0,2.6-.3c1.5-.3,3.4-.7,5.9-1.3,2.4-.6,4.9-1.3,7.3-2.2,2.4-.9,4.7-1.8,6.8-3,2.1-1.1,3.5-2.3,4.3-3.6.9-1.5,1.3-3,1.3-4.8s-.3-3.3-1-4.9c-.6-1.5-1.6-2.9-2.8-4.1-1.2-1.2-2.6-2-4.3-2.4-1.5-.4-2.9-.5-4.4-.1-1.5.3-2.9.8-4.4,1.3-1.5.6-3.1,1.3-4.6,2.1-1.5.8-2.9,1.7-4.3,2.7-1.9,1.4-3.5,3.1-4.8,5.2-1.3,2.1-2.2,4.3-2.7,6.5Z"/>
  </g>
</svg>