<?xml version="1.0" encoding="utf-8"?>
<!-- Generator: Adobe Illustrator 25.4.1, SVG Export Plug-In . SVG Version: 6.00 Build 0)  -->
<svg version="1.1" id="Layer_1" xmlns="http://www.w3.org/2000/svg" xmlns:xlink="http://www.w3.org/1999/xlink" x="0px" y="0px"
	 viewBox="0 0 600 600" style="enable-background:new 0 0 600 600;" xml:space="preserve">
<style type="text/css">
	.st0{fill:#FF4F02;}
</style>
<g>
	<g>
		<g>
			<path class="st0" d="M349.3,114.3c-100.6,0-182.5,81.9-182.5,182.5c0,32.4,8.5,62.9,23.4,89.3c3.5-5.6,6.3-12,8.3-18.9
				c-10-21.4-15.6-45.2-15.6-70.3c0-91.8,74.7-166.5,166.5-166.5S515.8,205,515.8,296.8s-74.7,166.5-166.5,166.5c-2,0-4-0.1-6-0.2
				c-6.9,5-14,9.8-21.3,14.2c8.9,1.3,18,2,27.3,2c100.6,0,182.5-81.9,182.5-182.5S450,114.3,349.3,114.3z"/>
			<g>
				<g>
					<path class="st0" d="M396.9,376.4c-3.6-3-8.9-2.6-12,0.8l-8.6,9.3c-1.8,2-4.8,2.2-6.8,0.4c-2-1.8-2.2-4.8-0.4-6.8l0.5-0.6
						l18.1-21.1c3.5-4,3.2-10-0.6-13.7c-4.1-3.9-10.6-3.7-14.4,0.6l0,0L359,362.9c-2.2,2.4-5.9,2.6-8.3,0.5c-2.1-1.9-2.4-5-1-7.3
						l-0.1-0.1l0.6-0.7c0,0,0-0.1,0.1-0.2l28-32.7c3.5-4.1,3.3-10.2-0.4-14c-4.1-4.2-11-4.1-15,0.2l-28.1,29.9l-0.1-0.1l-1.5,1.6
						c-2.5,2.5-6.5,2.5-8.9,0c-2.5-2.5-2.5-6.5,0-8.9l25.1-25.8l27.8-30.6c4.2-4.4,4.5-11.2,0.6-15.9c-4.5-5.6-12.9-6-18-0.8
						l-96.5,99.4c-2.5,2.5-6.5,2.5-8.9,0c-2.5-2.5-2.5-6.5,0-8.9l21.2-21.4l21.7-22.3c3.2-3.3,2.6-9.1-1.7-11
						c-15.5-7-41.5,9.3-55.8,23.6c-13.6,13.6-18,23.4-23.8,48.6c-3.3,14.5-9.6,28.5-19.5,39.7c-48.1,54.2-128.6,17.5-128.6,17.5
						c50.3,69.4,158.2,74.3,217.4,48.3C334,450,381.4,408.1,398,388.9C401.2,385.1,400.7,379.5,396.9,376.4z"/>
				</g>
				<path class="st0" d="M439.5,262.4h-17c-2.4,0-4.4,1.9-4.4,4.4c0,2.4,1.9,4.4,4.4,4.4h17c2.4,0,4.4-1.9,4.4-4.4
					C443.9,264.4,441.9,262.4,439.5,262.4z M318.6,234.6l-14.7-8.5c-2.1-1.2-4.7-0.5-5.9,1.6c-1.2,2.1-0.5,4.7,1.6,5.9l14.7,8.5
					c0.7,0.4,1.4,0.6,2.2,0.6c1.5,0,3-0.8,3.8-2.2C321.4,238.4,320.7,235.8,318.6,234.6z M313.1,266.8c0-2.4-1.9-4.4-4.4-4.4h-17
					c-2.4,0-4.4,1.9-4.4,4.4c0,2.4,1.9,4.4,4.4,4.4h17C311.2,271.1,313.1,269.2,313.1,266.8z M414.9,242.7c0.7,0,1.5-0.2,2.2-0.6
					l14.7-8.5c2.1-1.2,2.8-3.9,1.6-5.9c-1.2-2.1-3.9-2.8-5.9-1.6l-14.7,8.5c-2.1,1.2-2.8,3.9-1.6,5.9
					C411.9,241.9,413.4,242.7,414.9,242.7z M431.8,300l-14.7-8.5c-2.1-1.2-4.7-0.5-5.9,1.6c-1.2,2.1-0.5,4.7,1.6,5.9l14.7,8.5
					c0.7,0.4,1.4,0.6,2.2,0.6c1.5,0,3-0.8,3.8-2.2C434.6,303.8,433.9,301.2,431.8,300z M404.8,199c-2.1-1.2-4.7-0.5-5.9,1.6
					l-8.5,14.7c-1.2,2.1-0.5,4.7,1.6,5.9c0.7,0.4,1.4,0.6,2.2,0.6c1.5,0,3-0.8,3.8-2.2l8.5-14.7C407.6,202.9,406.9,200.2,404.8,199z
					 M332.5,200.6c-1.2-2.1-3.9-2.8-5.9-1.6c-2.1,1.2-2.8,3.9-1.6,5.9l8.5,14.7c0.8,1.4,2.3,2.2,3.8,2.2c0.7,0,1.5-0.2,2.2-0.6
					c2.1-1.2,2.8-3.9,1.6-5.9L332.5,200.6z M397.9,313.8c-1.2-2.1-3.9-2.8-5.9-1.6c-2.1,1.2-2.8,3.9-1.6,5.9l8.5,14.7
					c0.8,1.4,2.3,2.2,3.8,2.2c0.7,0,1.5-0.2,2.2-0.6c2.1-1.2,2.8-3.9,1.6-5.9L397.9,313.8z M365.7,188.5c-2.4,0-4.4,1.9-4.4,4.4v17
					c0,2.4,1.9,4.4,4.4,4.4c2.4,0,4.4-1.9,4.4-4.4v-17C370,190.5,368.1,188.5,365.7,188.5z"/>
			</g>
		</g>
	</g>
</g>
</svg>
