<?xml version="1.0" encoding="utf-8"?>
<!-- Generator: Adobe Illustrator 25.4.1, SVG Export Plug-In . SVG Version: 6.00 Build 0)  -->
<svg version="1.1" id="Layer_1" xmlns="http://www.w3.org/2000/svg" xmlns:xlink="http://www.w3.org/1999/xlink" x="0px" y="0px"
	 viewBox="0 0 600 159.2" style="enable-background:new 0 0 600 159.2;" xml:space="preserve">
<style type="text/css">
	.st0{fill:#1C252A;}
	.st1{fill:#FF4F02;}
</style>
<g>
	<g>
		<g>
			<g>
				<g>
					<path class="st0" d="M288.9,124.7c-10.3,0-18.5-3.4-24.6-10.2c-5.5-6.1-8.2-13.7-8.2-22.6c0-9.1,2.8-16.7,8.3-23
						c6.2-7,14.6-10.5,25.2-10.5c10.3,0,18.5,3.4,24.6,10.2c5.5,6.1,8.2,13.7,8.2,22.6c0,9.1-2.8,16.7-8.3,23
						C307.8,121.2,299.4,124.7,288.9,124.7z M290.3,72c-6.1,0-11,2-14.6,6.1c-3.3,3.7-4.9,8.1-4.9,13.4c0,5.1,1.5,9.4,4.6,12.9
						c3.5,3.9,8.2,5.8,14.2,5.8c6.1,0,11-2,14.6-6.1c3.3-3.7,4.9-8.1,4.9-13.4c0-5.1-1.5-9.4-4.6-12.9C301,74,296.3,72,290.3,72z"/>
					<path class="st0" d="M359.8,61.1c8.8,0,16.4,3.1,22.6,9.4c6.3,6.3,9.4,13.8,9.4,22.6c0,8.7-3,16.1-8.9,22.2
						c-6,6.2-13.2,9.2-21.8,9.2c-8.9,0-16.6-2.8-23.1-8.4c-6.7-5.8-10-12.9-10-21.5V40.3h13.3v53.9c0,4.8,1.9,8.9,5.7,12.3
						c3.8,3.4,8.2,5.1,13.1,5.1c0.4,0,0.8,0,1,0c0.3,0,0.9-0.1,1.7-0.2c4.5-0.7,8.1-2.9,11-6.5c2.8-3.7,4.2-7.9,4.2-12.6
						c0-1.2-0.1-2.6-0.4-4.1c-0.9-4.3-3.1-7.6-6.6-9.9c-3.1-2.1-6.7-3.2-11-3.2c-2.9,0-5.7,0.5-8.3,1.6c-2.6,1.1-4.7,2.7-6.4,4.7
						V65.1c2.7-1.5,5.1-2.6,7.1-3.2C354.4,61.4,356.8,61.1,359.8,61.1z"/>
					<path class="st0" d="M429.6,61.1c8.8,0,16.4,3.1,22.6,9.4c6.3,6.3,9.4,13.8,9.4,22.6c0,8.7-3,16.1-8.9,22.2
						c-6,6.2-13.2,9.2-21.8,9.2c-8.9,0-16.6-2.8-23.1-8.4c-6.7-5.8-10-12.9-10-21.5V40.3H411v53.9c0,4.8,1.9,8.9,5.7,12.3
						c3.8,3.4,8.2,5.1,13.1,5.1c0.4,0,0.8,0,1,0c0.3,0,0.9-0.1,1.7-0.2c4.5-0.7,8.1-2.9,11-6.5c2.8-3.7,4.2-7.9,4.2-12.6
						c0-1.2-0.1-2.6-0.4-4.1c-0.9-4.3-3.1-7.6-6.6-9.9c-3.1-2.1-6.7-3.2-11-3.2c-2.9,0-5.7,0.5-8.3,1.6c-2.6,1.1-4.7,2.7-6.4,4.7
						V65.1c2.7-1.5,5.1-2.6,7.1-3.2C424.2,61.4,426.6,61.1,429.6,61.1z"/>
					<path class="st0" d="M469.1,40.3h14.3v84.2h-14.3V40.3z"/>
					<path class="st0" d="M499.9,58.1c-2.7,0-4.8-0.9-6.3-2.6c-1.5-1.7-2.3-3.8-2.3-6.2c0-2.3,0.7-4.3,2.2-5.9
						c1.5-1.6,3.6-2.4,6.4-2.4c2.5,0,4.5,0.9,6,2.7c1.3,1.6,2,3.6,2,5.9c0,2.2-0.7,4.2-2.1,5.9C504.3,57.3,502.3,58.1,499.9,58.1z
						 M492.5,62.3h14.3v62.3h-14.3V62.3z"/>
					<path class="st0" d="M517.3,124.7V87.3c0-8.1,2.9-15.1,8.8-20.9c5.9-5.8,12.9-8.6,21.2-8.6c8.1,0,15,2.9,20.7,8.7
						s8.6,12.7,8.6,20.9v37.4h-15.3V86.9c0-3.8-1.5-7.1-4.4-9.7c-3-2.7-6.4-4-10.4-4c-3.8,0-7.1,1.3-9.9,3.9
						c-2.8,2.6-4.2,5.8-4.2,9.6v38.1H517.3z"/>
				</g>
			</g>
			<g>
				<path class="st0" d="M239,70.8l-12.9,12.9h5.1c-0.3,5.9-2.1,11-5.4,15.1c-2.8,3.5-6.6,6.2-11.4,8.1c-3.5,1.4-6.7,2.1-9.5,2.1
					c-1.1,0-1.7-0.1-1.7-0.4V56l0.3-0.2c7.1,0,13.8,2.7,19.9,8.1c3.3,2.9,5.5,6.3,6.7,10.3l8.9-8.9l7,7c-1.8-7.6-5.7-14.3-11.9-20.1
					c-8.6-8.1-19-12.1-31-12.1h-15.4v84.5h18.9c11.3,0,20.9-4.2,28.7-12.6c7.5-8,11.4-17.5,11.7-28.4h4.9L239,70.8z"/>
			</g>
		</g>
	</g>
	<g>
		<g>
			<path class="st1" d="M113,20.4c-32.1,0-58.2,26.1-58.2,58.2c0,10.3,2.7,20,7.5,28.5c1.1-1.8,2-3.8,2.6-6c-3.2-6.8-5-14.4-5-22.4
				c0-29.3,23.8-53.1,53.1-53.1s53.1,23.8,53.1,53.1s-23.8,53.1-53.1,53.1c-0.6,0-1.3,0-1.9,0c-2.2,1.6-4.5,3.1-6.8,4.5
				c2.8,0.4,5.7,0.7,8.7,0.7c32.1,0,58.2-26.1,58.2-58.2S145.1,20.4,113,20.4z"/>
			<g>
				<g>
					<path class="st1" d="M128.2,103.9c-1.1-0.9-2.8-0.8-3.8,0.3l-2.7,3c-0.6,0.6-1.5,0.7-2.2,0.1c-0.6-0.6-0.7-1.5-0.1-2.2l0.2-0.2
						l5.8-6.7c1.1-1.3,1-3.2-0.2-4.4c-1.3-1.3-3.4-1.2-4.6,0.2l0,0l-4.4,5.6c-0.7,0.8-1.9,0.8-2.6,0.2c-0.7-0.6-0.8-1.6-0.3-2.3l0,0
						l0.2-0.2c0,0,0,0,0,0l8.9-10.4c1.1-1.3,1.1-3.2-0.1-4.5c-1.3-1.3-3.5-1.3-4.8,0.1l-8.9,9.5l0,0l-0.5,0.5
						c-0.8,0.8-2.1,0.8-2.8,0s-0.8-2.1,0-2.8l8-8.2l8.9-9.7c1.3-1.4,1.4-3.6,0.2-5.1c-1.4-1.8-4.1-1.9-5.7-0.3L85.6,97.9
						c-0.8,0.8-2.1,0.8-2.8,0s-0.8-2.1,0-2.8l6.8-6.8l6.9-7.1c1-1.1,0.8-2.9-0.5-3.5c-4.9-2.2-13.2,3-17.8,7.5
						c-4.3,4.3-5.7,7.4-7.6,15.5c-1.1,4.6-3.1,9.1-6.2,12.6c-15.3,17.3-41,5.6-41,5.6c16,22.1,50.4,23.7,69.3,15.4
						c15.4-6.8,30.5-20.1,35.8-26.3C129.5,106.7,129.4,104.9,128.2,103.9z"/>
				</g>
				<path class="st1" d="M141.8,67.6h-5.4c-0.8,0-1.4,0.6-1.4,1.4c0,0.8,0.6,1.4,1.4,1.4h5.4c0.8,0,1.4-0.6,1.4-1.4
					C143.1,68.2,142.5,67.6,141.8,67.6z M103.2,58.7L98.5,56c-0.7-0.4-1.5-0.2-1.9,0.5c-0.4,0.7-0.2,1.5,0.5,1.9l4.7,2.7
					c0.2,0.1,0.5,0.2,0.7,0.2c0.5,0,0.9-0.2,1.2-0.7C104.1,60,103.9,59.1,103.2,58.7z M101.5,69c0-0.8-0.6-1.4-1.4-1.4h-5.4
					c-0.8,0-1.4,0.6-1.4,1.4c0,0.8,0.6,1.4,1.4,1.4h5.4C100.8,70.4,101.5,69.8,101.5,69z M133.9,61.3c0.2,0,0.5-0.1,0.7-0.2l4.7-2.7
					c0.7-0.4,0.9-1.2,0.5-1.9c-0.4-0.7-1.2-0.9-1.9-0.5l-4.7,2.7c-0.7,0.4-0.9,1.2-0.5,1.9C133,61.1,133.4,61.3,133.9,61.3z
					 M139.3,79.6l-4.7-2.7c-0.7-0.4-1.5-0.2-1.9,0.5s-0.2,1.5,0.5,1.9l4.7,2.7c0.2,0.1,0.5,0.2,0.7,0.2c0.5,0,0.9-0.2,1.2-0.7
					C140.2,80.8,140,80,139.3,79.6z M130.7,47.4c-0.7-0.4-1.5-0.2-1.9,0.5l-2.7,4.7c-0.4,0.7-0.2,1.5,0.5,1.9
					c0.2,0.1,0.5,0.2,0.7,0.2c0.5,0,0.9-0.2,1.2-0.7l2.7-4.7C131.6,48.6,131.3,47.8,130.7,47.4z M107.6,47.9
					c-0.4-0.7-1.2-0.9-1.9-0.5c-0.7,0.4-0.9,1.2-0.5,1.9l2.7,4.7c0.3,0.4,0.7,0.7,1.2,0.7c0.2,0,0.5-0.1,0.7-0.2
					c0.7-0.4,0.9-1.2,0.5-1.9L107.6,47.9z M128.5,84c-0.4-0.7-1.2-0.9-1.9-0.5c-0.7,0.4-0.9,1.2-0.5,1.9l2.7,4.7
					c0.3,0.4,0.7,0.7,1.2,0.7c0.2,0,0.5-0.1,0.7-0.2c0.7-0.4,0.9-1.2,0.5-1.9L128.5,84z M118.2,44.1c-0.8,0-1.4,0.6-1.4,1.4v5.4
					c0,0.8,0.6,1.4,1.4,1.4c0.8,0,1.4-0.6,1.4-1.4v-5.4C119.6,44.7,119,44.1,118.2,44.1z"/>
			</g>
		</g>
	</g>
</g>
</svg>
