<svg xmlns="http://www.w3.org/2000/svg" viewBox="0 0 568.82 72.83"><defs><style>.cls-1,.cls-2{fill:#fff;}.cls-2{fill-opacity:0;stroke:#000;stroke-miterlimit:3.82;stroke-opacity:0;stroke-width:0.96px;}</style></defs><g id="Layer_2" data-name="Layer 2"><g id="Layer_1-2" data-name="Layer 1"><path id="a4OZyMl9J" class="cls-1" d="M.48,10.9h16c11.72,0,16.68.22,18.69.76,9.11,2.4,16.69,10.09,18.7,18.92C57,44.1,48.06,58.05,34.39,61c-3,.61-21.16.88-22.68.28-.76-.28-.88-2.83-.88-22.89V15.8H.48V72l18.15-.16c17.28-.16,18.26-.22,21.64-1.43a39.73,39.73,0,0,0,14.28-9,34.43,34.43,0,0,0,8.5-13.51c1.26-3.55,1.42-4.8,1.42-11.61.06-7.09-.06-8-1.53-11.89A36.36,36.36,0,0,0,37.16,1.42C34,.7,30,.54,16.89.54H.48V10.9Z"/><path id="a4OZyMl9J-2" data-name="a4OZyMl9J" class="cls-2" d="M.48,10.9h16c11.72,0,16.68.22,18.69.76,9.11,2.4,16.69,10.09,18.7,18.92C57,44.1,48.06,58.05,34.39,61c-3,.61-21.16.88-22.68.28-.76-.28-.88-2.83-.88-22.89V15.8H.48V72l18.15-.16c17.28-.16,18.26-.22,21.64-1.43a39.73,39.73,0,0,0,14.28-9,34.43,34.43,0,0,0,8.5-13.51c1.26-3.55,1.42-4.8,1.42-11.61.06-7.09-.06-8-1.53-11.89A36.36,36.36,0,0,0,37.16,1.42C34,.7,30,.54,16.89.54H.48V10.9Z"/><path id="a4WdPb4eHo" class="cls-1" d="M75.15,71.4H85V.54H75.15V71.4Z"/><path id="a4WdPb4eHo-2" data-name="a4WdPb4eHo" class="cls-2" d="M75.15,71.4H85V.54H75.15V71.4Z"/><path id="b3eoXNraFS" class="cls-1" d="M97.34,13c-3.6,7.57-1.58,17,4.9,22.94,5.17,4.74,6.76,5.07,24.47,5.45L142,41.7l2,1.52a10.24,10.24,0,0,1,3.43,12c-.87,2.13-4.14,5.12-6.21,5.67-.81.28-7.36.44-14.56.44-12.53,0-13.18-.06-15.36-1.21-2.45-1.31-5.07-5-5.07-7.13,0-1.15-.22-1.2-5.45-1.2a26.93,26.93,0,0,0-5.45.27c0,.11.28,1.52.6,3.11a20.81,20.81,0,0,0,16.3,16.24c2.07.44,7.35.6,16.89.44l13.9-.16,3.54-1.7a22.26,22.26,0,0,0,10.2-9.91c1.36-2.79,1.52-3.66,1.52-8.84s-.11-6-1.58-8.88a22.65,22.65,0,0,0-10-9.54c-3.38-1.58-3.7-1.58-23.28-1.91-11.06-.16-12.8-.65-15.42-4.08-1.3-1.69-1.46-2.46-1.46-5.83s.16-4.15,1.57-5.94c2.89-3.82,4.31-4.15,19.08-4.15,12.16,0,13.25,0,15.43,1.14a9,9,0,0,1,5.23,6.33c0,.16.24.93.6,2.34h10.3c-.16-1.57-.26-2.44-.28-2.61-.59-6.22-5.17-12.54-11.27-15.54L143.61.82,128,.7c-11.77-.1-16.08.06-17.82.61C104.42,3.16,100.12,7,97.34,13Z"/><path id="b3eoXNraFS-2" data-name="b3eoXNraFS" class="cls-2" d="M97.34,13c-3.6,7.57-1.58,17,4.9,22.94,5.17,4.74,6.76,5.07,24.47,5.45L142,41.7l2,1.52a10.24,10.24,0,0,1,3.43,12c-.87,2.13-4.14,5.12-6.21,5.67-.81.28-7.36.44-14.56.44-12.53,0-13.18-.06-15.36-1.21-2.45-1.31-5.07-5-5.07-7.13,0-1.15-.22-1.2-5.45-1.2a26.93,26.93,0,0,0-5.45.27c0,.11.28,1.52.6,3.11a20.81,20.81,0,0,0,16.3,16.24c2.07.44,7.35.6,16.89.44l13.9-.16,3.54-1.7a22.26,22.26,0,0,0,10.2-9.91c1.36-2.79,1.52-3.66,1.52-8.84s-.11-6-1.58-8.88a22.65,22.65,0,0,0-10-9.54c-3.38-1.58-3.7-1.58-23.28-1.91-11.06-.16-12.8-.65-15.42-4.08-1.3-1.69-1.46-2.46-1.46-5.83s.16-4.15,1.57-5.94c2.89-3.82,4.31-4.15,19.08-4.15,12.16,0,13.25,0,15.43,1.14a9,9,0,0,1,5.23,6.33c0,.16.24.93.6,2.34h10.3c-.16-1.57-.26-2.44-.28-2.61-.59-6.22-5.17-12.54-11.27-15.54L143.61.82,128,.7c-11.77-.1-16.08.06-17.82.61C104.42,3.16,100.12,7,97.34,13Z"/><path id="b1UQ3WTfU" class="cls-1" d="M168.9,42.24l5.17-5.18,5.19-5.17V.54H168.9v41.7Z"/><path id="b1UQ3WTfU-2" data-name="b1UQ3WTfU" class="cls-2" d="M168.9,42.24l5.17-5.18,5.19-5.17V.54H168.9v41.7Z"/><path id="aokkRAW7s" class="cls-1" d="M168.9,49.33V71.94h10.36V53.85l5.23-5.18,5.17-5.23L204,57.67l14.27,14.27h7c3.82,0,6.93-.16,6.93-.38s-7.91-8.34-17.5-17.93L197.08,36.08,202.2,31c2.84-2.84,10.74-10.84,17.66-17.77L232.4.54H217.68L193.27,25Z"/><path id="aokkRAW7s-2" data-name="aokkRAW7s" class="cls-2" d="M168.9,49.33V71.94h10.36V53.85l5.23-5.18,5.17-5.23L204,57.67l14.27,14.27h7c3.82,0,6.93-.16,6.93-.38s-7.91-8.34-17.5-17.93L197.08,36.08,202.2,31c2.84-2.84,10.74-10.84,17.66-17.77L232.4.54H217.68L193.27,25Z"/><path id="b59SBDoUb0" class="cls-1" d="M289.63,51c1,2.22,1.62,3.46,1.74,3.7,3.16,6.71,10.25,12.44,19,15.43,3.7,1.31,5.29,1.53,10.62,1.53a33,33,0,0,0,18-4.42c5.07-2.83,11-8.83,12.59-13,1.31-3.27,1.31-3.32,1.48-28.5q0-2.52.16-25.19H342.82q-.13,19.72-.16,21.92c-.16,15.1-.44,22.56-.87,23.87a22.93,22.93,0,0,1-13,13.56,24.6,24.6,0,0,1-14.05.39,22,22,0,0,1-13.52-12.86c-1.2-2.89-1.26-3.7-1.42-25q0-2.21-.16-21.92H289.3l.16,25.19Z"/><path id="b59SBDoUb0-2" data-name="b59SBDoUb0" class="cls-2" d="M289.63,51c1,2.22,1.62,3.46,1.74,3.7,3.16,6.71,10.25,12.44,19,15.43,3.7,1.31,5.29,1.53,10.62,1.53a33,33,0,0,0,18-4.42c5.07-2.83,11-8.83,12.59-13,1.31-3.27,1.31-3.32,1.48-28.5q0-2.52.16-25.19H342.82q-.13,19.72-.16,21.92c-.16,15.1-.44,22.56-.87,23.87a22.93,22.93,0,0,1-13,13.56,24.6,24.6,0,0,1-14.05.39,22,22,0,0,1-13.52-12.86c-1.2-2.89-1.26-3.7-1.42-25q0-2.21-.16-21.92H289.3l.16,25.19Z"/><path id="dbw93xtzH" class="cls-1" d="M362.93,14.44l28.62,28.62,28.61,28.62V.49l-5.28.17-5.35.16-.27,22.51L409,45.78,386.37,23.17C374,10.73,363.59.54,363.37.54s-.44,3.11-.44,7Z"/><path id="dbw93xtzH-2" data-name="dbw93xtzH" class="cls-2" d="M362.93,14.44l28.62,28.62,28.61,28.62V.49l-5.28.17-5.35.16-.27,22.51L409,45.78,386.37,23.17C374,10.73,363.59.54,363.37.54s-.44,3.11-.44,7Z"/><path id="b1t4ogpg5a" class="cls-1" d="M430,10.9h63.78V.54H430V10.9Z"/><path id="b1t4ogpg5a-2" data-name="b1t4ogpg5a" class="cls-2" d="M430,10.9h63.78V.54H430V10.9Z"/><path id="a1ZurQpZoF" class="cls-1" d="M505.58,12.65c-5.84,7.08-8.68,14.6-8.68,23.05a33.66,33.66,0,0,0,9.65,24.69c7.09,7.52,15.2,11.11,25.35,11.23,6.54.06,10-.66,15.69-3.27A34.83,34.83,0,0,0,566.51,47.2c3-8.94,2.34-17.93-2-27a37.25,37.25,0,0,0-15-15.48,37.92,37.92,0,0,0-25-3.38C517.78,2.84,509.66,7.63,505.58,12.65Zm51.93,27.14a25.58,25.58,0,0,1-33,20.28c-9.87-3.06-17.17-13.14-17.17-23.82,0-16.47,15.53-28.62,31.34-24.53C551.3,15.05,559.58,27.41,557.51,39.79Z"/><path id="a1ZurQpZoF-2" data-name="a1ZurQpZoF" class="cls-2" d="M505.58,12.65c-5.84,7.08-8.68,14.6-8.68,23.05a33.66,33.66,0,0,0,9.65,24.69c7.09,7.52,15.2,11.11,25.35,11.23,6.54.06,10-.66,15.69-3.27A34.83,34.83,0,0,0,566.51,47.2c3-8.94,2.34-17.93-2-27a37.25,37.25,0,0,0-15-15.48,37.92,37.92,0,0,0-25-3.38C517.78,2.84,509.66,7.63,505.58,12.65Zm51.93,27.14a25.58,25.58,0,0,1-33,20.28c-9.87-3.06-17.17-13.14-17.17-23.82,0-16.47,15.53-28.62,31.34-24.53C551.3,15.05,559.58,27.41,557.51,39.79Z"/><path id="cx7WiC8Lv" class="cls-1" d="M456.14,71.94h10.35V15.8H456.14V71.94Z"/><path id="cx7WiC8Lv-2" data-name="cx7WiC8Lv" class="cls-2" d="M456.14,71.94h10.35V15.8H456.14V71.94Z"/><path id="eiJMa5AI5" class="cls-1" d="M363.21,71.68l5.34.16,5.28.16V32.43l-5.06-5.07a59.88,59.88,0,0,0-5.46-5c-.21,0-.32,11.12-.26,24.65Q363.08,51.93,363.21,71.68Z"/><path id="eiJMa5AI5-2" data-name="eiJMa5AI5" class="cls-2" d="M363.21,71.68l5.34.16,5.28.16V32.43l-5.06-5.07a59.88,59.88,0,0,0-5.46-5c-.21,0-.32,11.12-.26,24.65Q363.08,51.93,363.21,71.68Z"/><path id="b2wY9MeyE6" class="cls-1" d="M243.5,7.24c-1.65,2.17-1.52,2.17,3.17,0C258,2.29,267.88,4.32,273.6,13c4.57,6.72,4.95,11.81,1.52,18.79-6.6,13.34-21.72,15.88-31,5.46-1.4-1.64-1.91-3.17-1.27-3.42s3.68-2,6.59-3.94c4.71-3.18,5.22-3.94,3.82-5.72-1.4-2-2.16-1.64-9.14,2.93a92.58,92.58,0,0,1-8.89,5.46c-1.28.5,20.57,37.71,22.22,37.71,1.27,0,13.46-19.05,18.54-29.08C283.12,27.44,281,10.93,271.06,4,265.6,0,254.42-.64,249.22,2.67A33.71,33.71,0,0,0,243.5,7.24Z"/><path id="b2wY9MeyE6-2" data-name="b2wY9MeyE6" class="cls-2" d="M243.5,7.24c-1.65,2.17-1.52,2.17,3.17,0C258,2.29,267.88,4.32,273.6,13c4.57,6.72,4.95,11.81,1.52,18.79-6.6,13.34-21.72,15.88-31,5.46-1.4-1.64-1.91-3.17-1.27-3.42s3.68-2,6.59-3.94c4.71-3.18,5.22-3.94,3.82-5.72-1.4-2-2.16-1.64-9.14,2.93a92.58,92.58,0,0,1-8.89,5.46c-1.28.5,20.57,37.71,22.22,37.71,1.27,0,13.46-19.05,18.54-29.08C283.12,27.44,281,10.93,271.06,4,265.6,0,254.42-.64,249.22,2.67A33.71,33.71,0,0,0,243.5,7.24Z"/></g></g></svg>