<?xml version="1.0" standalone="no"?>
<!DOCTYPE svg PUBLIC "-//W3C//DTD SVG 20010904//EN"
 "http://www.w3.org/TR/2001/REC-SVG-20010904/DTD/svg10.dtd">
<svg version="1.0" xmlns="http://www.w3.org/2000/svg"
 width="2740.000000pt" height="1080.000000pt" viewBox="0 0 2740.000000 1080.000000"
 preserveAspectRatio="xMidYMid meet">

<g transform="translate(0.000000,1080.000000) scale(0.100000,-0.100000)" stroke="none">
<path fill="#ff4e02" d="M1648 7245 c-3 -3 -183 -5 -401 -6 -219 0 -397 -2 -397 -4 0 -2 66
-68 146 -147 141 -138 306 -304 640 -642 151 -152 156 -160 143 -182 -8 -12
-76 -86 -152 -164 -76 -79 -143 -153 -150 -165 -11 -21 -245 -268 -582 -613
-262 -269 -276 -285 -269 -312 19 -78 37 -163 45 -220 12 -81 24 -151 43 -260
9 -47 19 -110 22 -140 10 -82 22 -95 91 -98 32 -1 92 -6 133 -12 41 -5 120
-14 175 -19 55 -6 159 -17 230 -26 l130 -15 128 133 c71 72 210 217 310 322
100 104 221 229 270 278 48 49 112 119 141 155 30 37 113 128 185 202 72 74
130 140 130 145 0 6 -28 34 -62 64 -73 64 -245 229 -268 257 -20 23 -252 241
-329 309 -115 100 -189 176 -184 190 4 10 35 12 147 9 78 -2 232 -6 342 -9
1142 -30 1088 -25 1267 -116 152 -78 301 -254 350 -412 47 -155 38 -346 -23
-482 -59 -132 -210 -288 -341 -354 -46 -23 -102 -47 -123 -52 -99 -26 -208
-40 -295 -37 -52 1 -102 -2 -110 -7 -13 -8 -205 -223 -340 -379 -14 -16 -30
-34 -35 -40 -6 -6 -62 -69 -125 -141 -63 -71 -118 -131 -122 -133 -3 -2 -23
-30 -44 -63 -21 -32 -42 -59 -46 -59 -4 0 -8 -6 -8 -12 1 -13 73 -68 88 -68 5
0 36 -11 71 -25 71 -29 137 -48 271 -78 85 -19 127 -21 395 -21 321 0 378 6
581 59 184 49 311 108 476 220 158 107 328 259 406 364 15 20 29 38 32 41 17
16 60 80 60 88 0 6 3 12 8 14 18 8 129 215 172 323 35 88 77 262 86 360 10
106 11 401 1 495 -9 77 -33 200 -46 235 -15 37 -31 91 -31 103 0 19 -64 156
-120 257 -198 360 -569 667 -965 800 -74 25 -214 54 -382 79 -86 14 -231 16
-931 16 -456 0 -831 -2 -834 -5z"/>
<path d="M7630 6724 c-363 -45 -585 -131 -758 -298 -158 -151 -233 -332 -233
-559 1 -355 185 -575 599 -714 59 -19 220 -62 359 -94 364 -84 470 -125 523
-199 59 -83 23 -199 -79 -249 -79 -39 -130 -46 -336 -46 -167 1 -216 4 -300
23 -157 34 -289 81 -434 154 -74 37 -136 66 -137 65 -2 -1 -57 -124 -123 -272
-89 -199 -117 -272 -110 -282 20 -23 253 -132 359 -167 115 -37 292 -77 440
-98 144 -20 509 -16 635 6 394 71 672 254 790 522 48 109 59 169 59 319 -1
124 -4 149 -27 221 -92 277 -328 435 -823 549 -433 99 -509 122 -582 174 -69
51 -89 128 -53 207 25 55 83 100 161 126 93 30 333 37 468 13 127 -23 293 -76
419 -135 l101 -48 20 47 c27 61 192 460 203 489 8 20 2 25 -69 61 -235 118
-515 180 -842 186 -107 2 -211 1 -230 -1z"/>
<path d="M13136 6720 c-659 -83 -1132 -501 -1253 -1107 -12 -64 -17 -136 -17
-263 0 -127 5 -199 17 -263 113 -562 519 -958 1116 -1084 114 -24 147 -27 336
-27 189 0 222 3 336 27 597 126 1003 522 1116 1084 24 122 24 404 0 526 -112
560 -522 960 -1111 1083 -135 28 -412 40 -540 24z m384 -636 c304 -75 508
-339 527 -684 7 -125 -7 -223 -46 -338 -37 -106 -81 -179 -156 -257 -269 -280
-745 -282 -1017 -4 -277 283 -277 815 0 1098 101 103 248 178 394 200 80 12
214 5 298 -15z"/>
<path d="M24766 6720 c-659 -83 -1132 -501 -1253 -1107 -12 -64 -17 -136 -17
-263 0 -127 5 -199 17 -263 113 -562 519 -958 1116 -1084 114 -24 147 -27 336
-27 189 0 222 3 336 27 597 126 1003 522 1116 1084 12 64 17 136 17 263 0 127
-5 199 -17 263 -112 560 -522 960 -1111 1083 -135 28 -412 40 -540 24z m384
-636 c304 -75 508 -339 527 -684 7 -125 -7 -223 -46 -338 -37 -106 -81 -179
-156 -257 -269 -280 -745 -282 -1017 -4 -277 283 -277 815 0 1098 101 103 248
178 394 200 80 12 214 5 298 -15z"/>
<path d="M5500 5350 l0 -1330 375 0 375 0 0 1330 0 1330 -375 0 -375 0 0
-1330z"/>
<path d="M9230 5350 l0 -1330 375 0 375 0 0 333 1 332 135 145 c74 80 138 145
143 145 5 0 172 -207 371 -460 199 -253 369 -468 379 -478 16 -16 48 -17 449
-15 l432 3 -570 739 -571 740 54 55 c52 54 972 1054 1011 1099 l19 22 -414 0
-414 -1 -510 -549 -510 -550 -3 550 -2 550 -375 0 -375 0 0 -1330z"/>
<path d="M15183 5838 c3 -755 5 -852 21 -932 50 -254 141 -440 290 -595 92
-94 169 -149 297 -211 169 -80 333 -117 564 -127 409 -17 747 88 975 304 174
164 272 354 326 629 16 80 18 177 21 932 l4 842 -370 0 -370 0 -3 -817 c-4
-811 -4 -819 -26 -898 -30 -107 -63 -173 -118 -234 -170 -189 -570 -182 -728
13 -48 58 -83 133 -108 228 -21 81 -22 99 -25 896 l-4 812 -375 0 -375 0 4
-842z"/>
<path d="M18190 5350 l0 -1330 370 0 370 0 2 705 3 705 585 -704 585 -705 313
-1 312 0 0 1330 0 1330 -370 0 -370 0 -2 -705 -3 -705 -585 704 -585 705 -312
1 -313 0 0 -1330z"/>
<path d="M21002 6383 l3 -298 408 -3 407 -2 0 -1030 0 -1030 375 0 375 0 0
1030 0 1030 408 2 407 3 0 295 0 295 -1193 3 -1192 2 2 -297z"/>
</g>
</svg>
