<svg xmlns="http://www.w3.org/2000/svg" xmlns:xlink="http://www.w3.org/1999/xlink" viewBox="0 0 497.6 499.46"><defs><style>.cls-1{fill:#efed9c;}.cls-2{fill:url(#linear-gradient);}.cls-3{fill:#ff8b00;}</style><linearGradient id="linear-gradient" x1="-41.28" y1="1040.17" x2="80.34" y2="660.33" gradientTransform="matrix(-0.38, 1.19, 1.18, 0.38, -745.02, -97.7)" gradientUnits="userSpaceOnUse"><stop offset="0" stop-color="#ffce00"/><stop offset="1" stop-color="#ff9626"/></linearGradient></defs><g id="Layer_2" data-name="Layer 2"><g id="Layer_1-2" data-name="Layer 1"><ellipse class="cls-1" cx="248.58" cy="250.59" rx="201.21" ry="202.51"/><path class="cls-2" d="M497.57,253.63C499.73,115.72,390.11,2.18,252.71,0S2.19,107.93,0,245.83,107.5,497.27,244.89,499.43s250.52-107.9,252.68-245.8Zm-49.75-.78c-1.73,110.32-92.24,198.36-202.15,196.64S48.06,356.93,49.79,246.61,142,48.25,251.93,50s197.62,92.56,195.89,202.88Z"/><path class="cls-3" d="M128.12,321.58q-17.13,0-28.86-18.94T87.53,256.21q0-33.6,14.12-56.62t34.65-23a49.71,49.71,0,0,1,14.89,2.14q6.87,2.15,9.8,4.38l2.78,2.24-10.5,28.31a36.38,36.38,0,0,0-10-7.64q-6.48-3.57-11.73-3.56-10.65,0-17,11.6t-6.41,33.1q0,21.48,6.64,35.23t18.06,13.75q7.41,0,13.42-6.11t8.49-16.3l12.81,9.78q-5.1,17.92-15.59,28T128.12,321.58Zm95.37-144.79q18.21,0,30,18.32t11.8,46.64q0,35.85-14,57.84t-36.89,22q-17.74,0-29.78-18.84t-12-46.53q0-34.62,14.35-57T223.49,176.79Zm20.83,76.37q0-51.53-25.61-51.53-11.73,0-18.45,11.51t-6.71,34.41q0,22.92,7.18,37.68t19,14.76q11.81,0,18.21-12.52T244.32,253.16Zm38-70.26,21.91-5.1L302,266.39l1.85,52.95h-21.6l1.85-49.49Zm109.41-1.43,18.83-3.06-2,88,1.7,48.47L392,320l-46-98.16v44.6l2.16,52.95H328.89l1.85-49.49-1.85-90.42,18.52-1.22,45.84,99.59Z"/></g></g></svg>